# xmcd
#
# Track frame offsets: 
#        150
#        16155
#        27652
#        38042
#        49295
#        64952
#        89870
#        102062
#        114392
#        134700
#        158545
#        167462
#        182962
#        193500
#        207015
#        223892
#        239535
#        253540
#        263977
#        276977
#        291167
#        309790
#
# Disc length: 4325 seconds
#
# Revision: 10
# Processed by: cddbd v1.5.2PL0 Copyright (c) Steve Scherf et al.
# Submitted via: ExactAudioCopy v1.1
#
DISCID=4910e316
DTITLE=Various Artist - Lady Sings the Blues - Disc 2
DYEAR=2002
DGENRE=Blues
TTITLE0=Ella Fitzgerald - Every Time We Say Goodbye
TTITLE1=Julie London - Fly Me to the Moon
TTITLE2=Dinah Washington - Call Me Irresponsible
TTITLE3=Lena Horne, Ray Ellis and Orchestra - In Love in Vain
TTITLE4=Tina Turner - Night Time is the Right Time
TTITLE5=Bonnie Raitt - I Can't Make You Love Me
TTITLE6=Erma Franklin - Light My Fire
TTITLE7=Aretha Franklin - Today I Sing the Blues
TTITLE8=Janis Joplin - Me and Bobby McGee
TTITLE9=Dianne Reeves - In a Sentimental Mood
TTITLE10=Nancy Wilson - Wives and Lovers
TTITLE11=Nina Simone - Wild is the Wind
TTITLE12=Kay Starr - Baby Won't You Please Come Home
TTITLE13=Sue Raney - When Your Lover Has Gone
TTITLE14=Peggy Lee - The Man I Love
TTITLE15=Sarah Vaughan, Jimmie Jones and Orchestra - Stormy Weather
TTITLE16=Betty Lavette - Let Me Down Easy
TTITLE17=Irma Thomas - Wish Someone Would Care
TTITLE18=Betty Swann - Tell It Like It Is
TTITLE19=Billie Holiday with The Paul Whiteman Orchestra - Trav'lin Li
TTITLE19=ght
TTITLE20=Cassandra Wilson - Time After Time
TTITLE21=Lisa Ekdahl - Daybreak
EXTD=Disc 2 of 2\nEMI 7243 5 81344 2 1\nThis compilation: (p) and (c) 20
EXTD=02 EMI Records\nEXTD=n(p) and (n(p) and (c) 2002 Circa Records Ltd
EXTT0=
EXTT1=
EXTT2=
EXTT3=
EXTT4=
EXTT5=
EXTT6=
EXTT7=
EXTT8=
EXTT9=
EXTT10=
EXTT11=
EXTT12=
EXTT13=
EXTT14=
EXTT15=
EXTT16=
EXTT17=
EXTT18=
EXTT19=
EXTT20=
EXTT21=
PLAYORDER=
